<?xml version="1.0" encoding="UTF-8" standalone="no"?>
<!-- Created with Inkscape (http://www.inkscape.org/) -->

<svg
   xmlns:dc="http://purl.org/dc/elements/1.1/"
   xmlns:cc="http://creativecommons.org/ns#"
   xmlns:rdf="http://www.w3.org/1999/02/22-rdf-syntax-ns#"
   xmlns:svg="http://www.w3.org/2000/svg"
   xmlns="http://www.w3.org/2000/svg"
   xmlns:sodipodi="http://sodipodi.sourceforge.net/DTD/sodipodi-0.dtd"
   xmlns:inkscape="http://www.inkscape.org/namespaces/inkscape"
   id="svg3425"
   version="1.1"
   inkscape:version="0.91 r13725"
   width="1500"
   height="1500"
   viewBox="0 0 1500 1500"
   sodipodi:docname="byu_medallion_black_white.svg">
  <metadata
     id="metadata3431">
    <rdf:RDF>
      <cc:Work
         rdf:about="">
        <dc:format>image/svg+xml</dc:format>
        <dc:type
           rdf:resource="http://purl.org/dc/dcmitype/StillImage" />
        <dc:title></dc:title>
      </cc:Work>
    </rdf:RDF>
  </metadata>
  <defs
     id="defs3429" />
  <sodipodi:namedview
     pagecolor="#ffffff"
     bordercolor="#666666"
     borderopacity="1"
     objecttolerance="10"
     gridtolerance="10"
     guidetolerance="10"
     inkscape:pageopacity="0"
     inkscape:pageshadow="2"
     inkscape:window-width="2495"
     inkscape:window-height="1416"
     id="namedview3427"
     showgrid="false"
     inkscape:zoom="0.85266667"
     inkscape:cx="750"
     inkscape:cy="890.73495"
     inkscape:window-x="65"
     inkscape:window-y="24"
     inkscape:window-maximized="1"
     inkscape:current-layer="svg3425" />
  <path
     style="fill:#FFFFF1; fill-opacity:0.7"

     d="m 703.98695,1421.3719 c -144.5003,-8.6185 -278.1085,-57.6905 -391.25382,-143.7008 -28.434,-21.6149 -46.52405,-37.4794 -73.37041,-64.3444 -41.57563,-41.6044 -74.30526,-83.0264 -103.68814,-131.226 C 77.82359,987.20224 44.01817,884.55181 33.55045,772.0001 c -2.14632,-23.07784 -2.14632,-98.17216 0,-121.25 6.69849,-72.02395 23.2034,-141.34365 48.96411,-205.64653 10.58294,-26.41671 34.82693,-75.15191 49.36137,-99.22608 47.72797,-79.05441 107.01595,-145.20168 180.67196,-201.5747 60.07256,-45.976904 134.31356,-84.980895 207.49996,-109.014354 69.3191,-22.76347 133.806,-33.5422276 208.4051,-34.83418857 52.6167,-0.911254 91.1023,1.96178197 139.0949,10.38375657 188.00385,32.99181 356.48605,142.679016 464.51745,302.415436 117.5427,173.7999 151.9252,390.56757 94.1771,593.74666 -38.4554,135.3001 -118.3642,258.1594 -227.4445,349.6941 -101.0237,84.7741 -227.20275,140.7033 -358.75005,159.0165 -38.8049,5.4023 -98.6521,7.8923 -136.0609,5.6612 z m 50.2219,-49.2018 c 6.2945,-2.63 10.839,-8.803 10.839,-14.7231 0,-8.4464 -3.9612,-13.462 -10.6875,-13.5321 -7.0768,-0.074 -9.2174,5.6786 -3.5684,9.5893 5.4053,3.7422 8.0059,6.5203 8.0059,8.5528 0,3.3387 -5.8285,8.0681 -9.9432,8.0681 -2.5505,0 -3.8068,0.6187 -3.8068,1.875 0,2.3409 3.7968,2.4113 9.161,0.17 z m -47.5528,-23.0704 c 9.2688,-4.563 17.6548,-12.9891 22.2682,-22.3746 2.3723,-4.8259 2.943,-8.0183 2.9679,-16.6 0.027,-9.2304 -0.4318,-11.5274 -3.4934,-17.5 -14.8223,-28.9156 -54.6543,-35.0124 -77.764,-11.9026 -16.668,16.668 -17.3085,40.3612 -1.5571,57.5957 10.5443,11.5372 20.9644,15.7032 37.9724,15.1815 9.9032,-0.3037 12.4432,-0.8737 19.606,-4.4 z m -30.3964,-2.1445 c -7.8223,-2.4114 -15.4032,-9.3055 -19.5742,-17.8007 -3.1728,-6.4624 -3.5126,-8.4238 -3.5126,-20.2794 0,-14.0726 2.3441,-21.9456 8.4986,-28.5436 8.5082,-9.1213 24.9476,-11.1342 37.0272,-4.5338 12.5446,6.8546 18.8492,19.2326 18.8492,37.0074 0,26.6817 -17.7879,41.3945 -41.2882,34.1501 z m 222.1875,-8.7167 c 14.6548,-4.352 24.8946,-15.4113 26.1586,-28.252 0.5158,-5.2399 -0.4722,-11.4203 -4.4474,-27.8205 -6.9671,-28.7439 -6.9292,-29.1628 3.1916,-35.3318 4.9891,-3.041 0.297,-2.7048 -14.9232,1.0691 -15.8014,3.9182 -19.7814,5.9718 -11.5736,5.9718 8.4107,0 10.1688,3.0547 16.561,28.776 4.7295,19.0305 5.5931,24.2204 4.8524,29.1599 -2.3057,15.3755 -22.5156,24.3632 -37.9658,16.884 -8.6548,-4.1898 -11.7444,-10.3358 -17.8969,-35.6013 -5.9476,-24.424 -5.8493,-27.2576 1.0571,-30.4686 4.6951,-2.1829 5.7256,-5.7815 1.2744,-4.4506 -9.3704,2.8016 -32.0214,8.1825 -34.4791,8.1907 -5.099,0.017 -2.2041,3.1116 3.2907,3.5175 3.6995,0.2733 5.8601,1.2475 7.5602,3.4089 1.3599,1.7287 4.657,12.2835 7.6902,24.6174 2.9203,11.8751 6.6774,23.9943 8.3492,26.9316 7.1317,12.5305 24.8578,18.2809 41.3006,13.3979 z m -309.3687,-36.8634 c 28.8846,-33.8201 31.6014,-36.25 40.53,-36.25 5.9002,0 2.2566,-2.7989 -6.5577,-5.0372 -4.8227,-1.2248 -10.915,-3.1237 -13.5384,-4.2198 -5.796,-2.4217 -5.7145,-2.4189 -5.7145,-0.2023 0,0.9849 1.1256,2.148 2.5014,2.5847 5.0277,1.5957 5.2909,4.9395 0.902,11.4557 -4.4013,6.5347 -33.734,41.7549 -34.3019,41.187 -0.7129,-0.7129 -6.6014,-47.8585 -6.6014,-52.8533 -10e-5,-7.9754 0.8419,-9.1648 6.4878,-9.1648 8.2119,0 4.9489,-2.5354 -7.3699,-5.7264 -6.2796,-1.6267 -14.4157,-4.0972 -18.0802,-5.49 -7.8024,-2.9655 -8.5537,-3.0515 -8.4896,-0.9711 0.027,0.8594 1.8546,2.6875 4.0625,4.0625 6.8802,4.2847 8.0223,8.5671 13.2472,49.6735 2.6729,21.0283 5.2728,38.9016 5.7776,39.7185 1.1346,1.8358 -0.1963,3.2463 27.1451,-28.767 z m 419.32795,-3.467 c 6.7465,-3.2819 14.657,-6.8929 17.5789,-8.0245 7.3808,-2.8584 6.9613,-5.0632 -0.7682,-4.038 -5.8333,0.7739 -6.2076,0.6358 -9.2002,-3.3944 -2.5135,-3.385 -18.87395,-37.4727 -26.68825,-55.6063 l -1.6829,-3.9052 9.8878,-3.9073 c 11.19495,-4.4238 15.00725,-4.7885 19.47225,-1.8629 1.716,1.1244 3.4458,1.7185 3.8441,1.3202 1.24,-1.2401 -6.1028,-18.3646 -7.8746,-18.3646 -0.9226,0 -1.6775,1.1155 -1.6775,2.4789 0,2.8895 -1.6798,3.8024 -36.24995,19.701 -28.564,13.1364 -29.5547,13.4957 -31.8802,11.5657 -2.9317,-2.4331 -4.4098,-0.2912 -2.3945,3.4698 1.0048,1.8754 2.9357,6.1175 4.2907,9.4271 2.4908,6.0835 4.984,6.8725 4.984,1.5773 0,-4.6768 4.3047,-8.8294 14.8277,-14.3042 l 9.8915,-5.1461 12.8108,27.8028 c 7.0842,15.3748 13.07955,30.1147 13.41215,32.9748 0.5327,4.5825 0.1571,5.5679 -3.29545,8.6441 -3.9014,3.4763 -4.9226,5.5588 -2.7256,5.5588 0.6441,0 6.69105,-2.6851 13.43755,-5.967 z m -523.35855,-9.7814 c 21.4318,-6.8311 33.6304,-28.1452 28.2122,-49.2942 -3.7749,-14.7351 -12.3036,-24.7858 -26.903,-31.7041 -7.4567,-3.5336 -9.2953,-3.8783 -20.6842,-3.8783 -11.1351,0 -13.3509,0.393 -20.2929,3.5994 -8.1057,3.7438 -17.1199,12.1053 -20.8715,19.3602 -3.4048,6.584 -4.7517,16.7759 -3.2737,24.7713 1.8519,10.0176 5.8149,17.5179 13.1263,24.8421 13.3567,13.3803 32.6308,18.0588 50.6868,12.3036 z m -29.0581,-4.8977 c -15.4796,-5.6853 -24.1814,-22.0755 -21.077,-39.6997 2.7593,-15.6647 13.8857,-31.1781 24.6552,-34.3763 14.9565,-4.4416 29.4598,1.8227 37.397,16.1526 3.329,6.0104 3.698,7.7803 3.6107,17.3195 -0.2678,29.2671 -21.8753,48.9448 -44.5859,40.6039 z m 621.88695,-21.104 c 10.6371,-7.1833 13.8268,-10.692 8.1087,-8.9198 -7.7791,2.4112 -8.105,2.3399 -9.5666,-2.0889 -0.7711,-2.3363 -2.1784,-8.3226 -3.1273,-13.3026 l -1.7252,-9.0546 11.0678,-7.442 c 6.0874,-4.0931 11.4135,-7.442 11.8358,-7.442 1.229,0 14.6539,10.6497 18.078,14.341 l 3.125,3.3687 -3.4375,2.9602 c -3.3167,2.8562 -4.5066,5.5801 -2.4376,5.5801 0.5499,0 4.3468,-2.4345 8.4375,-5.41 4.0907,-2.9755 11.2345,-7.8073 15.8751,-10.7371 4.6406,-2.9299 8.4375,-5.839 8.4375,-6.4649 0,-1.433 -0.2525,-1.4251 -6.7499,0.2109 -4.3079,1.0847 -6.2696,0.9676 -10.0174,-0.5983 -2.5631,-1.071 -18.7124,-11.5367 -35.8872,-23.2571 -17.1748,-11.7204 -31.6729,-21.0342 -32.2179,-20.6973 -0.5451,0.3368 1.7253,16.8049 5.0453,36.5956 7.0467,42.0063 7.4278,49.0401 3.0096,55.5422 -2.969,4.3692 -3.0601,6.943 -0.1803,5.0936 0.773,-0.4965 6.32,-4.2214 12.3266,-8.2777 z m -7.8399,-40.3333 c -0.01,-0.5729 -1.075,-7.2291 -2.3754,-14.7916 -1.3004,-7.5625 -2.2781,-13.8455 -2.1726,-13.9622 0.3871,-0.4282 22.6929,15.8781 22.9538,16.78 0.1483,0.5127 -3.455,3.4634 -8.0073,6.5572 -9.3255,6.3376 -10.3828,6.8884 -10.3985,5.4166 z m -686.65715,22.8942 c -4.5469,-6.7003 -6.2925,-15.7195 -5.4571,-28.1964 0.3955,-5.9066 1.3478,-13.6199 2.1162,-17.1406 l 1.3971,-6.4011 5.2566,0.5924 c 12.7092,1.4326 23.2392,-5.8865 24.2963,-16.8874 1.162,-12.0931 -8.6313,-23.6018 -35.7967,-42.067 -11.1137,-7.5544 -16.0407,-8.0495 -8.884,-0.8928 5.9264,5.9264 4.8152,8.1865 -18.2525,37.1245 -18.9617,23.7871 -20.8176,25.162 -28.5336,21.1383 -2.008,-1.0471 -4.1209,-1.4339 -4.6953,-0.8595 -0.8562,0.8562 9.4732,9.7192 28.4095,24.3762 4.2132,3.2611 4.6902,0.7797 0.8795,-4.5759 -2.8744,-4.0399 -3.1339,-5.136 -1.9553,-8.2585 1.4789,-3.9182 14.2004,-21.1536 15.6635,-21.2213 0.4955,-0.023 3.3657,1.6956 6.3781,3.819 l 5.4772,3.8607 -1.9585,5.2018 c -1.2852,3.4134 -1.9739,9.4994 -2.0032,17.7018 -0.039,11.0001 0.3574,13.3576 3.3055,19.6476 3.7774,8.0593 14.5737,20.4286 16.3128,18.6895 0.6592,-0.6591 -0.145,-2.9825 -1.9561,-5.6514 z m -14.0245,-62.363 c -3.4003,-2.2287 -6.6865,-4.4222 -7.3027,-4.8744 -1.6034,-1.1764 20.6386,-28.5734 23.1971,-28.5734 1.8065,0 9.9228,7.8648 11.7372,11.3735 2.9962,5.794 2.2941,12.5846 -1.8996,18.374 -4.6016,6.3523 -7.146,7.7525 -14.0874,7.7525 -4.0552,0 -7.0551,-1.0439 -11.6446,-4.0522 z m 822.40845,-11.2056 c -0.3835,-0.6204 -2.0316,-0.2537 -3.6625,0.8149 -6.2288,4.0813 -9.6393,2.7126 -21.435,-8.6018 l -10.9932,-10.5447 15.6062,-15.7053 c 8.5835,-8.6379 16.2594,-15.7053 17.0577,-15.7053 2.3584,0 20.0885,19.5952 20.9938,23.2024 0.5414,2.1569 0.1243,4.3915 -1.1956,6.406 -1.1149,1.7014 -1.7416,3.8376 -1.3926,4.7469 0.399,1.0399 5.9671,-3.7339 15.0056,-12.865 14.069,-14.2131 17.2056,-19.1081 8.9909,-14.0311 -7.5931,4.6928 -9.7731,3.7748 -24.3097,-10.2363 -22.7038,-21.8831 -31.3769,-31.1452 -32.187,-34.3728 -0.4863,-1.9377 0.096,-4.8347 1.542,-7.6695 1.2779,-2.5056 2.5256,-4.9775 2.7728,-5.4931 0.2471,-0.5156 -0.1132,-0.9375 -0.8005,-0.9375 -1.9907,0 -28.95,27.7527 -28.176,29.0051 0.3844,0.6219 2.0333,0.2564 3.6642,-0.8122 5.2623,-3.448 8.7101,-2.4003 17.7086,5.3815 14.7267,12.7353 14.3135,11.4828 6.5491,19.8564 -3.669,3.9568 -10.7779,11.4046 -15.7976,16.5506 l -9.1268,9.3564 -8.6649,-8.5985 c -4.7658,-4.7293 -9.6691,-10.4631 -10.8964,-12.742 -2.1135,-3.9246 -2.1188,-4.3794 -0.1001,-8.6128 4.3437,-9.1089 2.1526,-7.7786 -13.8656,8.4182 -8.0793,8.1693 -13.4338,14.5166 -12.7896,15.1608 0.6442,0.6442 2.5244,-0.01 4.4909,-1.5527 7.1786,-5.6466 8.8744,-4.6526 33.2633,19.4989 12.4557,12.3345 22.7212,23.5289 23.1526,25.2478 0.5123,2.0413 -0.158,4.7093 -1.9775,7.8708 -5.2901,9.1918 -1.2783,6.8794 12.9409,-7.4589 7.881,-7.947 14.0154,-14.9568 13.6319,-15.5772 z m -393.33605,22.2166 c 139.8314,-17.5725 260.48075,-89.4338 341.17125,-203.20876 46.6529,-65.78127 75.1737,-141.47925 85.7156,-227.50004 2.1565,-17.59672 2.1507,-86.2244 -0.01,-103.75 -2.6405,-21.42926 -7.5246,-48.24281 -12.073,-66.27902 -38.7306,-153.59026 -150.1631,-278.90469 -298.18355,-335.3318 -40.3983,-15.40031 -82.6629,-25.21779 -128.125,-29.76168 -19.3113,-1.93015 -69.4386,-1.93015 -88.75,0 -116.103,11.60437 -217.3736,59.28849 -298.8082,140.69627 -37.2282,37.21597 -68.3888,80.09431 -90.87745,125.05123 -20.68015,41.34161 -37.25617,92.00781 -44.57574,136.25 -5.03677,30.44415 -5.73857,40.53356 -5.73857,82.5 0,45.15359 1.1236,57.9345 8.24182,93.75 33.71885,169.65734 155.63054,308.6925 320.05854,365.0135 31.6975,10.8572 73.3817,19.8967 106.0746,23.003 7.9063,0.7512 16.3438,1.593 18.75,1.8707 10.0762,1.1628 72.727,-0.4935 87.1297,-2.3034 z m -38.3797,-120.7224 c 0,-0.6949 5.2372,-10.3981 11.6382,-21.5625 6.401,-11.1644 13.741,-24.0958 16.3112,-28.7364 l 4.673,-8.4375 -14.334,0 c -7.8836,0 -15.2862,0.3654 -16.4501,0.8121 -1.164,0.4466 -2.8755,2.556 -3.8033,4.6875 l -1.6871,3.8754 -0.032,-6.25 c -0.062,-12.2027 -1.4502,-11.4809 21.9018,-11.3888 15.105,0.06 20.5322,0.478 20.5322,1.5829 0,0.826 -5.3541,11.5265 -11.8981,23.7788 -6.5439,12.2524 -14.2783,26.9152 -17.1875,32.584 -3.57,6.9565 -6.0005,10.3086 -7.4769,10.3125 -1.2031,0 -2.1875,-0.563 -2.1875,-1.258 z m 65.625,-2.2696 c 19.339,-9.3577 21.6403,-23.4877 5.2435,-32.1955 -10.2692,-5.4537 -12.7281,-8.2422 -12.5705,-14.2553 0.1665,-6.3467 5.9902,-18.3716 9.4255,-19.4619 1.4319,-0.4545 5.8972,-0.1273 9.923,0.727 7.7355,1.6416 11.1035,0.6155 11.1035,-3.3829 0,-0.9877 0.5646,-1.4468 1.2546,-1.0204 1.1312,0.6991 0.9115,3.2617 -0.8304,9.686 -1.1273,4.1575 -4.7745,4.8773 -13.5471,2.6737 -7.7633,-1.9501 -8.3303,-1.941 -10.6632,0.1702 -1.3551,1.2264 -2.4639,3.7918 -2.4639,5.7009 0,3.8336 2.7187,6.2135 13.125,11.4895 9.0472,4.587 13.2771,9.5266 14.0531,16.4112 0.3657,3.2448 -0.031,7.3257 -0.9219,9.4757 -3.0839,7.4452 -14.9252,15.1609 -25.893,16.8718 -4.4024,0.6867 -4.2066,0.4819 2.7618,-2.89 z m -123.75,-14.2189 c -5.4898,-1.9102 -11.736,-8.361 -12.6108,-13.024 -0.419,-2.2335 -0.1092,-6.0383 0.6883,-8.4549 1.5274,-4.628 8.0623,-11.2204 12.5274,-12.6376 2.4523,-0.7783 2.2388,-1.217 -2.9434,-6.0478 -6.1153,-5.7005 -7.7411,-9.8106 -6.4993,-16.42996 2.5168,-13.416 21.3547,-20.0129 31.8734,-11.162 8.2907,6.9761 7.4094,17.82406 -2.0322,25.01416 l -5.2466,3.9955 5.029,3.4851 c 11.0453,7.6544 12.6831,20.4639 3.7575,29.3895 -6.5947,6.5947 -15.9993,8.8447 -24.5433,5.872 z m 18.9928,-5.2647 c 2.9767,-2.5604 3.5072,-3.9661 3.5072,-9.2929 0,-5.2691 -0.6017,-6.905 -3.75,-10.1958 -5.8049,-6.0676 -11.3575,-9.111 -14.0122,-7.6802 -10.229,5.5132 -12.7299,20.7611 -4.4888,27.367 4.9797,3.9916 13.9837,3.8964 18.7438,-0.1981 z m -0.5837,-41.0133 c 3.1356,-4.7855 3.7802,-10.29786 1.7676,-15.11476 -2.1538,-5.1549 -5.2297,-7.1051 -11.206,-7.1051 -5.9492,0 -9.6074,3.314 -10.4303,9.4489 -0.5719,4.26416 -0.1312,5.69696 2.838,9.22566 7.5008,8.9142 12.7912,10.0156 17.0307,3.5453 z m -80.2841,45.0206 c 0,-0.5448 1.3744,-0.9905 3.0542,-0.9905 5.7973,0 6.9458,-3.824 6.9458,-23.125 0,-19.301 -1.1485,-23.125 -6.9458,-23.125 -1.6798,0 -3.0542,-0.4436 -3.0542,-0.9857 0,-0.5421 6.1875,-0.964 13.7499,-0.9375 7.5624,0.026 13.7499,0.4701 13.75,0.9857 1e-4,0.5156 -1.0847,0.9375 -2.4106,0.9375 -5.5931,0 -6.3393,2.7221 -6.3393,23.125 0,20.4029 0.7462,23.125 6.3393,23.125 1.3259,0 2.4107,0.5229 2.4107,1.162 0,0.656 -5.9877,1.0873 -13.75,0.9905 -7.5625,-0.094 -13.75,-0.6172 -13.75,-1.162 z m 342.5111,-218.51729 c -54.7731,-5.70956 -85.0303,-31.54425 -91.2074,-77.87616 -0.7487,-5.61509 -1.3037,-34.94592 -1.3037,-68.89393 0,-56.91755 -0.091,-59.23236 -2.4618,-62.24566 -1.354,-1.72132 -4.1665,-3.47062 -6.25,-3.88732 -2.0835,-0.4167 -3.7882,-1.34058 -3.7882,-2.05307 0,-0.87786 16.2177,-1.19013 50.3125,-0.96875 32.6009,0.21168 50.2666,0.76672 50.1821,1.57668 -0.072,0.6875 -2.0405,1.57131 -4.375,1.96404 -6.3132,1.06202 -11.9518,4.43735 -12.8186,7.6734 -1.3227,4.93753 -0.8703,113.56893 0.5083,122.06494 1.7027,10.49322 6.0184,18.7082 13.1059,24.94685 7.4479,6.55588 16.1125,9.48087 28.08475,9.48087 22.5451,0 37.6535,-12.62766 41.1908,-34.42772 1.3786,-8.496 1.831,-117.1274 0.5084,-122.06494 -0.8578,-3.20215 -6.4674,-6.59396 -12.6908,-7.6734 -2.2642,-0.39273 -4.0926,-1.27654 -4.063,-1.96404 0.035,-0.8076 18.8946,-1.36537 53.2879,-1.576 42.0683,-0.25762 53.1252,8.1e-4 52.7147,1.23218 -0.2856,0.85698 -3.0055,1.9826 -6.0442,2.50133 -3.0387,0.51875 -6.932,1.99307 -8.6518,3.27627 l -3.1269,2.33307 -0.7194,66.11657 c -0.8025,73.743 -0.7342,73.10777 -9.9236,92.36658 -11.606,24.32343 -35.5285,40.34405 -68.9015,46.14251 -13.9018,2.41538 -40.01435,3.36869 -53.56945,1.9557 z m -614.7045,-4.01788 c 0.2832,-0.84958 3.0011,-1.96911 6.0398,-2.48784 3.0387,-0.51875 6.932,-1.99373 8.6517,-3.27774 l 3.1269,-2.33455 0,-97.2302 0,-97.2302 -3.1269,-2.33455 c -1.7197,-1.28401 -5.5413,-2.75096 -8.4924,-3.2599 -2.9511,-0.50895 -5.341,-1.48785 -5.311,-2.17535 0.076,-1.74739 117.8733,-2.31911 148.8053,-0.72223 35.436,1.8294 51.6907,6.64029 62.6662,18.54723 8.8468,9.59774 10.4588,14.74944 10.4588,33.425 0,14.9329 -0.2647,16.80724 -3.266,23.125 -4.1537,8.74361 -10.9322,15.42347 -20.132,19.83895 -6.8645,3.29465 -8.1188,5.16105 -3.4683,5.16105 4.567,0 17.5777,7.85371 22.9981,13.88251 7.2916,8.11008 10.8539,17.628 11.6463,31.11749 1.5876,27.02704 -8.8487,46.09522 -30.968,56.58166 -20.5915,9.76211 -33.4539,10.85236 -128.4767,10.88998 -56.3468,0.0222 -71.5566,-0.30184 -71.1518,-1.51632 z m 131.6117,-41.06912 c 18.6918,-3.45536 27.8222,-14.93207 24.5526,-30.86177 -1.7672,-8.60978 -5.1345,-13.14474 -12.4171,-16.72281 -5.5181,-2.71118 -7.7252,-2.9438 -31.8663,-3.35859 l -25.9375,-0.44565 0,26.3763 0,26.37631 19.1455,0 c 10.5299,0 22.4652,-0.6137 26.5228,-1.36379 z m 6.2067,-86.58566 c 7.8729,-3.42826 12.827,-9.01983 14.4611,-16.32201 2.687,-12.0066 -2.7596,-22.53408 -13.3096,-25.72565 -2.6958,-0.81554 -15.7296,-1.78509 -28.964,-2.15456 l -24.0625,-0.67177 0,24.0465 0,24.0465 23.4375,-0.52087 c 18.6921,-0.41541 24.4499,-0.9617 28.4375,-2.69814 z m 172.5227,127.9861 c -0.4125,-0.66735 0.82,-1.55011 2.7387,-1.9617 8.6002,-1.84481 14.31,-4.6787 15.4458,-7.66609 0.6423,-1.68938 1.1678,-19.106 1.1678,-38.70358 l 0,-35.63198 -36.4416,-53.97415 c -49.675,-73.57427 -45.9061,-68.84996 -56.3477,-70.63247 -2.8266,-0.48253 -5.3709,-1.57243 -5.6541,-2.422 -0.4033,-1.20993 10.8853,-1.54468 52.0893,-1.54468 28.9323,0 52.6041,0.4633 52.6041,1.02954 0,0.56625 -2.1093,1.55062 -4.6875,2.1875 -4.0521,1.001 -4.7395,1.69433 -5.0713,5.11482 -0.5456,5.62494 4.1899,14.32385 24.5717,45.13664 l 17.5909,26.59349 2.1137,-4.09349 c 1.1626,-2.25142 7,-11.406 12.9722,-20.3435 14.2284,-21.29331 25.938,-40.78036 26.9662,-44.87703 1.0558,-4.20664 -1.0339,-6.71172 -6.4455,-7.72696 -2.3312,-0.43732 -3.929,-1.29596 -3.5507,-1.90807 0.8815,-1.42627 98.9197,-1.47394 99.8006,-0.0485 0.3618,0.58542 -1.6168,1.74592 -4.397,2.57887 -2.818,0.84431 -6.9848,3.55383 -9.4162,6.1231 -2.3987,2.53475 -21.7619,30.44601 -43.0292,62.02505 l -38.6679,57.41639 0.1247,35.08357 c 0.068,19.29597 0.5135,36.48058 0.989,38.18803 0.8602,3.08951 7.1447,6.38114 15.5,8.11845 1.9187,0.39896 3.1511,1.2714 2.7387,1.93875 -1.0184,1.64786 -112.6863,1.64786 -113.7047,0 z m -86.9058,-367.38019 c -6.11,-2.00367 -10.9202,-5.08504 -14.7537,-9.4512 -14.3011,-16.28804 -2.2155,-42.02995 20.6988,-44.08775 9.5783,-0.86016 16.8862,1.30161 22.9648,6.7933 5.7239,5.17119 8.0097,9.05585 9.2645,15.74479 1.9006,10.13107 -5.3827,23.09812 -16.0226,28.52618 -5.526,2.81914 -17.1436,4.11701 -22.1518,2.47468 z m 20.0081,-4.8459 c 6.6263,-3.31021 10.3325,-11.37966 9.6323,-20.97232 -1.2031,-16.48293 -11.9702,-27.02109 -25.5304,-24.98761 -11.1492,1.67192 -17.799,12.23153 -16.2008,25.72618 2.0544,17.34629 17.8932,27.33033 32.0989,20.23375 z m 48.125,3.57689 c -10.7702,-4.97079 -13.125,-10.26191 -13.125,-29.49159 0,-7.80526 -0.3654,-15.1437 -0.812,-16.30762 -0.4467,-1.16394 -2.5561,-2.87543 -4.6875,-3.80332 -3.5577,-1.54872 -2.7479,-1.68707 9.8745,-1.68707 12.6225,0 13.4322,0.13835 9.8746,1.68707 -2.1315,0.92789 -4.2409,2.63938 -4.6875,3.80332 -0.4466,1.16392 -0.8112,8.39835 -0.8101,16.0765 10e-4,10.82028 0.4935,14.92431 2.1875,18.24641 3.1679,6.21267 7.6666,9.04719 14.3588,9.04719 13.1753,0 17.2755,-6.43382 17.0771,-26.79614 -0.1541,-15.82016 -0.8115,-18.24223 -5.513,-20.31303 -3.4775,-1.53165 -2.9985,-1.65286 6.8876,-1.74297 l 10.625,-0.0969 -4.0625,2.47695 -4.0625,2.47695 -0.01,14.70588 c 0,8.08824 -0.5843,16.78451 -1.2899,19.32507 -3.309,11.91425 -19.3406,18.15662 -31.8281,12.39325 z m 84.6875,-18.12987 -20.3125,-20.81756 0,17.27999 c 0,17.8411 0.6314,20.27999 5.25,20.27999 1.2375,0 2.25,0.5625 2.25,1.25 0,0.72916 -4.1666,1.25 -10,1.25 -5.8333,0 -10,-0.52084 -10,-1.25 0,-0.6875 1.0125,-1.25 2.25,-1.25 4.7022,0 5.25,-2.35101 5.25,-22.53211 0,-18.66746 -0.1245,-19.64486 -2.8125,-22.07929 -1.5468,-1.40095 -3.9375,-3.16939 -5.3125,-3.92987 -2.0589,-1.13874 -1.1982,-1.38942 4.878,-1.42072 l 7.3779,-0.038 19.1227,19.6875 19.1228,19.6875 0.062,-13.28125 c 0.082,-17.59868 -0.652,-20.80296 -5.4328,-23.71817 l -3.8804,-2.36623 11.25,0.0442 c 10.7918,0.0425 11.0845,0.11613 7.1875,1.80999 -2.2344,0.97115 -4.173,1.93351 -4.308,2.13858 -0.1351,0.20506 -0.557,11.55536 -0.9375,25.22289 l -0.6921,24.85009 -20.3125,-20.81753 z m -223.6679,18.43122 c 0.4461,-0.44615 2.0867,-1.44714 3.6458,-2.22441 2.7841,-1.38802 2.8346,-1.80267 2.8346,-23.2513 l 0,-21.83809 -4.375,-2.18556 c -4.3463,-2.17123 -4.2426,-2.18557 15.8038,-2.1875 21.9282,-0.002 21.7037,-0.0775 21.69,7.2878 l -0.01,3.33526 -2.8063,-3.50313 c -2.6591,-3.31938 -3.2652,-3.48328 -11.5563,-3.125 l -8.75,0.37813 -0.365,9.6875 -0.3651,9.6875 6.2539,0 c 4.8237,0 6.8367,-0.62557 8.8025,-2.7357 l 2.5488,-2.7357 0,6.4857 c 0,6.75571 -0.6501,7.7613 -2.9872,4.62096 -0.8365,-1.12392 -3.8708,-1.99297 -7.6378,-2.1875 l -6.25,-0.32276 -0.3908,6.875 c -0.6348,11.16768 0.5241,14.96416 4.8307,15.82549 7.5946,1.51892 3.2579,2.92451 -9.0233,2.92451 -6.9895,0 -12.3432,-0.36504 -11.8971,-0.8112 z m 263.3554,-0.3216 c 0,-0.75196 1.0125,-1.3672 2.25,-1.3672 4.7431,0 5.2507,-2.29858 5.2309,-23.6875 -0.01,-11.37813 -0.4324,-21.26556 -0.9375,-21.97209 -0.5051,-0.70652 -2.3246,-1.96239 -4.0434,-2.79081 -2.5541,-1.23107 0.5284,-1.4531 16.875,-1.21541 18.498,0.26897 20.3907,0.51464 25.2015,3.27108 18.0657,10.35109 16.5272,35.18663 -2.7963,45.13913 -5.4907,2.82793 -7.8042,3.17215 -23.9292,3.5603 -12.3494,0.29728 -17.851,0.009 -17.851,-0.9375 z m 38.7695,-4.89719 c 11.5314,-6.03637 13.3589,-27.09166 3.2305,-37.22001 -5.881,-5.88106 -20.4622,-9.0378 -24.25,-5.25 -1.0395,1.03951 -1.5,7.53571 -1.5,21.16071 0,16.20671 0.3451,20.0058 1.9643,21.625 2.7994,2.7994 14.9612,2.61261 20.5552,-0.3157 z m 26.2305,4.77999 c 0,-0.6875 1.3374,-1.25 2.972,-1.25 5.3994,0 5.8624,-2.06721 5.4964,-24.5403 l -0.3434,-21.0847 -4.375,-2.18556 c -4.3451,-2.17063 -4.2362,-2.18557 15.9375,-2.1875 l 20.3125,-0.002 0,4.375 c 0,5.07258 -0.3683,5.25671 -3.75,1.875 -1.9871,-1.98717 -4.1666,-2.5 -10.625,-2.5 l -8.125,0 0,10 0,10 6.4641,0 c 4.2607,0 7.2433,-0.70515 8.75,-2.06874 2.1856,-1.97795 2.2831,-1.79967 2.2204,4.0625 -0.063,5.93843 -0.1273,6.04279 -2.0275,3.31874 -1.6217,-2.32483 -3.1276,-2.8125 -8.6844,-2.8125 l -6.7226,0 0,9.75 c 0,5.91666 0.5898,10.33974 1.5,11.25 1.8115,1.81151 12.081,1.97765 16.5772,0.26818 1.782,-0.6775 3.7517,-2.50563 4.3772,-4.0625 1.1367,-2.82954 1.1372,-2.82943 1.1993,0.29432 0.034,1.71875 -0.277,4.39062 -0.6915,5.9375 -0.7415,2.76699 -1.0751,2.8125 -20.608,2.8125 -12.4028,0 -19.8542,-0.46914 -19.8542,-1.25 z m 53.75,0 c 0,-0.6875 1.0125,-1.25 2.25,-1.25 4.7493,0 5.25,-2.29089 5.25,-24.01838 l 0,-21.01837 -4.0625,-2.47695 -4.0625,-2.47695 17.5899,-0.005 c 20.9724,-0.005 27.0393,1.58145 33.5361,8.77264 13.4648,14.90388 5.0253,37.95381 -15.5088,42.35758 -8.0896,1.73524 -34.9922,1.82373 -34.9922,0.11543 z m 38.8922,-5.23011 c 15.6885,-8.8174 11.7568,-37.25259 -5.8258,-42.13408 -6.5062,-1.80631 -13.4476,-1.75456 -15.3164,0.11419 -1.0395,1.03951 -1.5,7.53571 -1.5,21.16071 0,23.18893 0.1843,23.58929 10.8566,23.58929 4.8066,0 8.4155,-0.83598 11.7856,-2.73011 z M 273.79789,1148.813 c 0,-0.7216 -0.88953,-3.0322 -1.97673,-5.1346 -1.09198,-2.1117 -1.65137,-5.1188 -1.24982,-6.7187 0.60426,-2.4076 27.65829,-28.2547 46.17991,-44.1198 l 4.8284,-4.1359 3.1029,2.8981 c 4.4796,4.1839 6.6153,8.932 6.6153,14.7073 0,8.7291 -11.0566,18.8157 -20.62496,18.8157 -4.83067,0 -10.429,-2.3765 -13.0566,-5.5426 -2.0289,-2.4447 -3.8184,-2.5225 -3.8184,-0.1661 0,2.3286 9.5362,10.1202 15.36873,12.5572 2.50303,1.0458 7.52213,1.8923 11.15363,1.8809 12.667,-0.039 21.5364,-8.3375 21.3607,-19.9846 -0.1314,-8.7083 -4.2082,-16.4106 -14.3931,-27.1923 -5.0279,-5.3226 -11.7406,-12.6851 -14.91717,-16.3611 -3.46439,-4.0091 -6.11409,-6.1358 -6.62158,-5.3147 -0.46532,0.7529 0.0303,2.6201 1.10138,4.1492 4.29769,6.1359 2.76545,9.731 -8.99009,21.0937 -12.96194,12.5288 -30.93592,28.5969 -35.27814,31.5374 -4.08265,2.7648 -7.00505,2.6401 -11.39537,-0.486 -7.58255,-5.3993 -6.01215,-0.6907 2.87737,8.6273 5.02497,5.2672 11.05234,11.9673 13.39417,14.8892 4.18952,5.2272 6.33947,6.5839 6.33947,4.0004 z m 992.89461,-122.0372 c 7.0018,-1.8421 12.9395,-3.5044 13.1953,-3.694 0.2556,-0.1896 -1.148,-6.5574 -3.119,-14.1507 -2.4453,-9.41986 -4.1484,-13.80596 -5.3609,-13.80596 -0.9774,0 -7.3082,1.4864 -14.0685,3.303 -8.2506,2.21716 -12.2915,3.88786 -12.2915,5.08206 0,3.6878 6.708,26.6149 7.787,26.6149 0.62,0 6.8559,-1.5072 13.8576,-3.3493 z M 237.39713,1014.4654 c 2.05593,-7.5434 3.3528,-14.0428 2.88191,-14.443 -1.37679,-1.17026 -26.71571,-7.57936 -27.37178,-6.92326 -0.71347,0.7134 -7.93867,27.37256 -7.52303,27.75806 0.42993,0.3987 27.74874,7.7099 28.03173,7.502 0.1337,-0.098 1.92522,-6.3504 3.98117,-13.8938 z M 1343.5484,939.39651 c 0.2065,-1.31802 2.1024,-7.90686 4.2129,-14.64185 4.6389,-14.80306 3.8496,-17.44612 -2.2545,-7.55033 -1.3435,2.17801 -1.5906,2.13547 -4.8165,-0.82923 -1.8703,-1.71875 -7.2749,-8.02452 -12.0104,-14.01282 l -8.6101,-10.88783 8.4266,-2.46665 c 26.3575,-7.71545 26.149,-7.70656 26.7795,-1.14187 0.2184,2.2738 0.8865,4.13417 1.4849,4.13417 0.5984,0 3.303,-7.3125 6.0104,-16.25 2.7073,-8.9375 5.2366,-17.23437 5.6203,-18.4375 1.2854,-4.02866 -2.6993,-2.32802 -5.1328,2.19065 -2.9809,5.53511 -9.8767,8.84408 -30.9163,14.83526 l -15.8304,4.50785 -12.2273,-3.7638 c -6.725,-2.07008 -13.945,-4.78231 -16.0445,-6.02716 -3.4504,-2.0458 -3.7978,-2.82407 -3.6149,-8.09682 0.3055,-8.80684 -2.539,-7.38822 -5.2214,2.60402 -1.2457,4.64063 -3.8605,13.18364 -5.8105,18.98449 -4.1404,12.3166 -3.9744,11.32801 -1.902,11.32801 0.9039,0 2.5752,-1.95399 3.7141,-4.34219 1.1801,-2.4749 3.296,-4.64971 4.9201,-5.05733 2.1338,-0.53555 33.5552,7.33562 34.2059,8.56872 0.06,0.11325 4.4879,6.03513 9.8404,13.15986 13.6686,18.1945 15.6429,21.97163 15.661,29.9626 0.013,4.77254 0.459,6.51887 1.5775,6.14643 0.8594,-0.28614 1.7315,-1.59864 1.938,-2.91668 z M 146.29789,934.5001 c 0,-3.91678 0.74275,-6.36775 2.4458,-8.0708 1.40949,-1.40949 14.07062,-6.21116 29.88179,-11.3325 31.42005,-10.17718 35.44927,-10.59328 39.53087,-4.08235 2.68541,4.28374 6.6418,5.81511 4.96855,1.92315 -0.51725,-1.20313 -3.42847,-10.05871 -6.46939,-19.67908 -6.88178,-21.7716 -8.39763,-24.97376 -14.90817,-31.49287 -15.16674,-15.18673 -37.16988,-7.25783 -37.28524,13.43586 l -0.0393,7.0346 -4.65115,-3.7355 c -9.27714,-7.45079 -21.72846,-5.33754 -26.3864,4.47833 -3.5289,7.4366 -2.64565,15.93555 3.72576,35.85074 3.19728,9.99373 5.99213,18.87355 6.21078,19.73292 0.96549,3.79466 2.97601,1.05013 2.97601,-4.0625 z m -7.33477,-26.93832 c -3.99821,-11.46928 1.80817,-19.83847 15.28028,-22.02469 5.0674,-0.82233 11.16857,3.83554 13.51169,10.31535 1.02179,2.8257 2.24874,4.20369 3.49605,3.9264 1.05696,-0.23496 1.71137,-1.23755 1.45424,-2.22798 -2.31709,-8.92493 -2.58208,-11.81182 -1.46383,-15.94805 1.79963,-6.65657 4.69415,-10.18335 10.53446,-12.83552 12.51093,-5.68143 21.60445,-0.67315 25.88635,14.25695 1.95642,6.82162 0.50455,7.66451 -30.45372,17.68011 -37.67654,12.18909 -36.46275,11.97146 -38.24552,6.85743 z m -19.63208,-68.11167 c -1.01994,-5.43673 1.55479,-8.78473 8.10285,-10.53641 9.73464,-2.60412 56.20088,-8.61695 59.66863,-7.72125 2.40547,0.62131 4.31767,2.4329 5.86082,5.55243 3.79102,7.66371 5.70648,6.05583 3.79104,-3.18228 -0.89093,-4.29688 -2.29098,-13.31404 -3.11123,-20.03815 -1.51026,-12.38069 -3.83475,-15.85344 -4.60031,-6.87283 -0.5172,6.06713 -3.36925,8.23154 -13.50084,10.24581 -18.05935,3.59036 -17.60591,3.62868 -18.47497,-1.56171 -0.42229,-2.52208 -1.09244,-5.76516 -1.48923,-7.20681 -0.57512,-2.08958 0.10813,-2.96481 3.36915,-4.31556 2.24983,-0.9319 7.83774,-5.22924 12.41758,-9.54962 11.08916,-10.46097 15.27333,-19.43994 15.44024,-33.13385 0.12617,-10.35149 -1.63628,-13.42979 -3.24793,-5.67287 -1.43847,6.92343 -5.06391,13.34659 -11.698,20.72529 -5.20505,5.78927 -20.19531,17.6928 -22.28076,17.6928 -0.42753,0 -3.01743,-2.17395 -5.75533,-4.83099 -12.34046,-11.97601 -29.42696,-8.39994 -33.71985,7.0573 -1.81285,6.52745 -1.61054,16.45275 0.6151,30.17635 2.88941,17.81657 5.60544,27.59734 7.6635,27.59734 1.36074,0 1.58426,-1.04163 0.94954,-4.42499 z m -3.44982,-25.15835 c -0.45833,-0.45832 -0.83123,-4.53645 -0.82866,-9.0625 0.006,-10.63598 2.6661,-15.25785 10.50435,-18.25131 8.00495,-3.05711 15.31637,-1.93183 19.76022,3.04128 3.46056,3.8727 7.93233,16.47462 6.84836,19.2994 -0.36675,0.95575 -6.58176,2.38518 -16.04561,3.69047 -17.1588,2.3666 -19.03577,2.48556 -20.23866,1.28266 z m 1261.66668,17.49427 c 0,-0.46149 -0.89,-1.82257 -1.9779,-3.02462 -1.8086,-1.99848 -1.641,-4.89543 1.959,-33.84842 4.3981,-35.37216 5.5291,-41.03789 8.192,-41.03789 1.0048,0 1.8269,-0.84375 1.8269,-1.875 0,-1.36787 -1.4369,-1.88306 -5.3125,-1.90483 -2.9219,-0.0164 -7.4219,-0.51966 -10,-1.11836 -5.433,-1.26166 -6.0894,0.11975 -2.0831,4.3843 3.7071,3.94599 4.8212,10.49195 3.5326,20.75453 -0.6151,4.89911 -1.2761,9.0652 -1.469,9.25797 -0.4003,0.40033 -57.2563,-6.62822 -62.4652,-7.72197 -4.3695,-0.91749 -8.4528,-6.08394 -8.4528,-10.69522 0,-2.35015 -0.6446,-3.58142 -1.875,-3.58142 -1.3687,0 -1.8815,1.43441 -1.8992,5.3125 -0.014,2.92187 -0.8394,10.9375 -1.8354,17.8125 -0.9961,6.875 -1.8289,13.48437 -1.8508,14.6875 -0.066,3.669 2.32,2.44331 4.2537,-2.1847 3.0895,-7.39402 4.735,-7.57501 35.2868,-3.88085 15.0122,1.81519 29.5829,3.61944 32.3794,4.00944 l 5.0845,0.70908 -1.1095,8.32977 c -1.5016,11.27462 -4.8589,18.63716 -8.9686,19.66864 -5.8648,1.47196 -3.6589,3.99981 4.5966,5.26771 10.2724,1.57763 12.1875,1.68438 12.1875,0.67933 z M 106.86852,729.42666 c 2.13182,-7.61032 5.47137,-8.24688 40.92256,-7.80032 32.79535,0.4131 32.94332,0.44978 34.60603,8.57955 0.46203,2.25901 1.5287,4.33685 2.3704,4.61742 1.16615,0.38871 1.53038,-4.42337 1.53038,-20.21905 0,-17.59259 -0.28371,-20.72916 -1.875,-20.72916 -1.03125,0 -1.875,1.09854 -1.875,2.44119 0,3.54185 -2.52112,8.52516 -4.85681,9.60009 -1.11,0.51083 -15.2746,1.15485 -31.47688,1.43113 -33.27987,0.5675 -37.90163,-0.23439 -39.35122,-6.82754 -1.26392,-5.74862 -1.67204,-6.64487 -3.02586,-6.64487 -0.83381,0 -1.28923,7.32254 -1.28923,20.72916 0,15.33446 0.38264,20.60163 1.47029,20.23908 0.80867,-0.26955 2.09132,-2.70705 2.85034,-5.41668 z m 1197.88638,-13.5685 c 1.2289,-4.59435 2.1606,-5.7373 5.5718,-6.83466 2.2919,-0.73731 17.1279,-1.42781 33.6832,-1.56769 33.4681,-0.28276 35.0384,0.0736 36.5823,8.30349 0.5036,2.68429 1.4558,4.3241 2.3399,4.0294 0.8199,-0.27331 1.4346,-1.15319 1.3658,-1.95526 -0.069,-0.80209 -0.2094,-9.94271 -0.3125,-20.3125 -0.1418,-14.25066 -0.5611,-18.72961 -1.7179,-18.34405 -0.8417,0.28057 -1.9083,2.35841 -2.3704,4.61742 -1.6211,7.92602 -2.1173,8.06563 -32.6877,9.19652 -37.5099,1.38757 -41.4995,0.66477 -43.2376,-7.83334 -0.4748,-2.32126 -1.5518,-4.45003 -2.3935,-4.7306 -1.1662,-0.38871 -1.5304,4.42337 -1.5304,20.21905 0,16.11431 0.3597,20.72916 1.6157,20.72916 0.8887,0 2.2798,-2.48262 3.0913,-5.51694 z M 169.42289,666.06871 c 21.12378,-10.92741 30.79645,-39.06426 22.56216,-65.63111 l -2.03401,-6.5625 -6.51407,-0.008 c -8.13186,-0.009 -16.02771,-2.06435 -18.07658,-4.70617 -0.85938,-1.10807 -1.5625,-3.92279 -1.5625,-6.25493 0,-2.83509 -0.51779,-4.06863 -1.5625,-3.72235 -0.96468,0.31975 -1.90964,4.30771 -2.4698,10.42314 -0.49903,5.44788 -1.70724,14.12107 -2.68493,19.27376 -0.9777,5.15269 -1.52058,9.7904 -1.20642,10.30602 1.2779,2.0974 2.48325,0.64544 3.91826,-4.71991 1.08198,-4.04537 2.36789,-5.98239 4.51289,-6.79791 3.29516,-1.25283 18.16405,0.4064 21.98973,2.45384 3.18114,1.7025 4.14425,7.3192 2.64536,15.42741 -1.76391,9.54191 -4.08188,14.51991 -9.02038,19.37189 -6.94191,6.82031 -13.04996,9.31806 -24.29776,9.93601 -20.08684,1.1041 -33.23654,-4.59899 -39.73632,-17.2333 -3.12699,-6.07826 -3.47583,-7.88904 -3.01011,-15.625 0.86045,-14.29284 7.56858,-24.0276 19.29204,-27.99638 3.30271,-1.11808 6.1482,-2.5888 6.32329,-3.26825 0.47421,-1.84017 -6.52406,-3.28447 -13.85655,-2.85971 l -6.4618,0.37434 -5,10 c -4.92598,9.85195 -5,10.20395 -5,23.77629 0,13.03721 0.21956,14.22227 4.09264,22.08961 4.96672,10.08886 14.98142,19.72557 24.35356,23.4344 9.34721,3.69896 24.07504,3.03374 32.8038,-1.48169 z m 1158.87361,-12.0754 c 6.2125,-2.82135 8.6447,-6.10107 16.0645,-21.66331 7.1248,-14.94296 11.1343,-18.73422 19.252,-18.20399 4.9266,0.32182 6.1258,0.96759 8.5809,4.62144 5.4574,8.12176 2.3694,19.26486 -6.5125,23.50031 -4.476,2.1345 -5.9457,5.37734 -2.437,5.37734 5.0254,0 13.3639,-3.06965 14.8903,-5.48152 2.9882,-4.72183 3.5168,-12.66232 1.3411,-20.14664 -4.8802,-16.78691 -24.0427,-24.5954 -35.8915,-14.62529 -2.3746,1.99814 -6.4545,8.62359 -10.5294,17.09891 -7.8686,16.36607 -11.7949,20.68412 -19.6079,21.56477 -4.8382,0.54533 -6.0671,0.15446 -9.6894,-3.08203 -3.6568,-3.26746 -4.2136,-4.6088 -4.6992,-11.32244 -0.752,-10.39671 2.2527,-15.25731 12.3299,-19.94562 4.061,-1.88933 7.3895,-3.85701 7.3966,-4.37264 0.016,-1.1423 -10.6731,-1.23776 -16.1412,-0.14415 -4.9548,0.99094 -8.7512,7.78958 -9.749,17.45873 -2.2318,21.6228 17.115,37.67103 35.4018,29.36613 z M 1293.24,600.43073 c -1.8652,-8.49264 6.5249,-24.08982 20.1982,-37.54812 l 7.9931,-7.86747 3.9959,3.3694 c 8.6132,7.26309 18.7017,8.77766 25.9983,3.90315 11.9357,-7.97346 11.4753,-24.02778 -1.7033,-59.41465 -4.3334,-11.63581 -6.7983,-13.53463 -6.1495,-4.73715 0.3363,4.5614 -0.099,5.81216 -2.742,7.89176 -2.5108,1.97499 -45.5069,15.50444 -58.1044,18.28351 -4.3555,0.96084 -8.7519,-1.17165 -11.1675,-5.41686 -2.3078,-4.05545 -6.2228,-5.40219 -4.5981,-1.5817 0.5116,1.20313 3.2246,9.92188 6.0288,19.375 2.8434,9.58506 5.7559,17.1875 6.5845,17.1875 1.0029,0 1.2758,-1.56727 0.8394,-4.82041 -0.8941,-6.66673 2.313,-9.31855 16.9341,-14.00213 6.4753,-2.07421 11.906,-3.60956 12.0683,-3.41187 0.1622,0.19767 1.2859,3.39094 2.4969,7.09612 2.1318,6.52235 2.1272,6.77645 -0.1439,7.98578 -1.2903,0.68699 -5.2037,4.15439 -8.6964,7.70534 -11.3935,11.58336 -16.9181,27.59382 -14.3379,41.55175 0.7224,3.90751 1.3134,7.28251 1.3134,7.5 0,0.21748 0.8885,0.39542 1.9744,0.39542 1.5044,0 1.7942,-0.81972 1.2177,-3.44437 z m 32.291,-50.18815 c -4.18,-2.54887 -9.2037,-11.49852 -9.6092,-17.11857 -0.2217,-3.07133 0.3668,-3.63607 5.3761,-5.15862 15.8434,-4.81559 28.1445,-7.69578 29.0407,-6.79958 0.5522,0.55222 1.6128,4.46039 2.3569,8.68484 1.1802,6.69908 1.0574,8.28594 -0.9597,12.41514 -4.3255,8.85409 -17.9598,13.00441 -26.2048,7.97679 z M 201.96504,571.0626 c 0.47617,-2.23438 3.01561,-9.96875 5.64317,-17.1875 2.62757,-7.21875 4.95453,-13.89844 5.17104,-14.84375 0.76558,-3.34272 -2.1356,-2.5877 -4.23572,1.10234 -1.7701,3.11017 -2.9192,3.74141 -6.81084,3.74141 -5.73134,0 -29.21932,-7.5305 -29.09545,-9.32831 0.0491,-0.71318 3.30091,-10.29669 7.22615,-21.29669 8.13805,-22.80588 5.93992,-21.31589 22.56944,-15.29863 13.14234,4.75547 16.94395,8.12212 15.9673,14.14047 -1.1553,7.11931 2.51497,5.35553 4.74309,-2.27934 1.05335,-3.60938 3.8913,-11.86838 6.30657,-18.35335 4.67278,-12.5463 4.30111,-16.95462 -0.77324,-9.17129 -2.88821,4.43014 -3.44405,4.70773 -9.28786,4.63835 -4.35085,-0.0516 -13.2521,-2.57575 -29.66755,-8.41276 -12.89845,-4.58644 -25.11615,-9.19969 -27.15044,-10.25165 -5.05198,-2.61249 -6.63581,-6.03888 -5.6068,-12.12958 1.69334,-10.02276 -2.05054,-4.18388 -7.38747,11.52137 -2.91498,8.57802 -5.97014,16.82506 -6.78925,18.32673 -1.89623,3.47637 -1.87194,4.14468 0.15063,4.14468 0.90197,0 2.88755,-1.6875 4.41243,-3.75 2.0814,-2.81524 3.77505,-3.75 6.79447,-3.75 5.41472,0 27.14895,7.33195 27.16968,9.16557 0.009,0.80269 -3.139,10.54603 -6.99573,21.65185 l -7.01222,20.19244 -10.24095,-3.46166 c -18.04105,-6.09826 -21.72475,-9.0947 -20.1265,-16.37151 0.59689,-2.71763 0.34599,-3.67669 -0.96184,-3.67669 -1.09945,0 -2.56656,2.86726 -3.87481,7.57281 -1.15799,4.16504 -4.06271,12.52244 -6.45494,18.57199 -4.9435,12.50127 -4.96515,12.6052 -2.62616,12.6052 0.94784,0 2.43124,-1.709 3.29644,-3.79778 3.29256,-7.94893 6.74912,-7.95957 30.02706,-0.0924 29.68698,10.0332 36.68039,12.77536 39.75414,15.58789 2.55356,2.33655 2.82651,3.43303 2.14445,8.61481 -0.62141,4.7209 -0.40889,5.9375 1.03719,5.9375 1.04097,0 2.18897,-1.73728 2.68452,-4.0625 z M 1268.2779,495.58572 c 8.7328,-2.1936 10.2096,-4.83562 2.703,-4.83562 -5.9907,0 -9.653,-3.63732 -15.4261,-15.32134 -3.4182,-6.9176 -4.3279,-9.93737 -3.4395,-11.41697 1.2325,-2.0528 24.8577,-15.00228 27.5285,-15.08895 1.454,-0.0471 7.2727,11.37641 8.7085,17.09683 0.4756,1.89499 -0.029,3.80723 -1.4037,5.32703 -4.0377,4.46165 -0.8231,5.00375 7.1927,1.21294 8.8157,-4.16922 10.119,-5.82482 5.0432,-6.40687 -2.9264,-0.33557 -4.2862,-1.86083 -8.1596,-9.15267 -2.5564,-4.8125 -4.6658,-9.41189 -4.6875,-10.22086 -0.036,-1.36424 3.9,-3.46549 20.8936,-11.15227 l 6.558,-2.96645 3.6079,7.95699 c 6.3812,14.07339 6.8799,16.43618 4.3667,20.6906 -1.2151,2.05704 -1.8452,4.10413 -1.4003,4.54906 0.445,0.44495 3.8246,-0.44091 7.5103,-1.96857 l 6.7015,-2.77758 -9.521,-18.93046 c -5.2365,-10.41175 -11.1375,-22.86796 -13.1132,-27.68046 -4.0778,-9.93263 -4.9228,-11.21771 -6.6668,-10.13986 -0.8182,0.50572 -0.7977,2.2131 0.06,5.00806 1.9638,6.39849 0.4435,10.09565 -5.5917,13.59831 -12.2823,7.12832 -51.0432,24.65849 -54.5222,24.65849 -3.7273,0 -5.9875,-1.54696 -9.4196,-6.44695 -0.9916,-1.41574 -2.3886,-2.21211 -3.1044,-1.76971 -0.7979,0.49315 2.4433,8.40472 8.3771,20.44801 5.3232,10.80401 11.4569,23.72177 13.6303,28.70615 2.1734,4.98437 4.2901,9.0625 4.7036,9.0625 0.4136,0 4.4053,-0.91771 8.8707,-2.03938 z M 245.56435,458.2501 c 6.5677,-10.96824 7.5938,-16.8803 1.75075,-10.08735 -1.95587,2.27384 -3.59646,3.10347 -5.04093,2.54917 -2.39811,-0.92023 -15.97628,-18.12477 -15.97628,-20.24309 0,-0.74731 2.8452,-6.19285 6.32267,-12.10123 7.19482,-12.22429 6.55933,-11.97765 21.59236,-8.38022 11.96709,2.86375 12.91331,3.66006 10.31635,8.68202 -2.38979,4.62134 -2.43848,5.22051 -0.41888,5.15506 0.85937,-0.0279 5.78125,-7.393 10.9375,-16.36698 11.02447,-19.18713 10.75666,-18.58238 8.22916,-18.58238 -1.08854,0 -1.97916,0.57076 -1.97916,1.26837 0,0.69761 -1.82813,2.38301 -4.0625,3.74533 -5.79556,3.53363 -12.14765,3.21529 -50.15857,-2.5137 -34.97033,-5.27071 -38.27893,-5.61489 -38.27893,-3.98193 0,0.55994 9.91641,15.04432 22.03649,32.1875 12.12006,17.14318 22.86716,33.12213 23.88243,35.50875 1.1402,2.68029 1.62735,6.61435 1.27418,10.28983 -0.59238,6.16505 0.22309,8.6722 1.88146,5.78456 0.52551,-0.91504 3.98686,-6.72621 7.6919,-12.91371 z m -32.33532,-44.57754 c -4.50601,-6.29889 -7.94788,-11.6974 -7.6486,-11.99667 1.03378,-1.03378 26.96746,3.95938 26.96746,5.19221 0,1.3767 -9.81815,18.257 -10.61889,18.257 -0.27899,0 -4.19397,-5.15364 -8.69997,-11.45254 z M 1239.7553,388.88744 c 36.3597,-6.9351 46.1497,-7.63569 52.5103,-3.75766 2.251,1.37242 4.3604,2.49532 4.6875,2.49532 1.6289,0 0.1749,-3.23055 -3.5621,-7.91463 -2.2862,-2.86571 -5.8019,-7.88125 -7.8125,-11.14563 -2.0106,-3.2644 -4.4189,-5.93628 -5.3519,-5.9375 -1.1441,-10e-4 -1.3871,0.70981 -0.7466,2.18526 2.0189,4.65056 1.2735,8.32391 -2.013,9.91994 -3.6639,1.77937 -54.7782,12.20013 -55.6358,11.34257 -0.841,-0.84102 25.3528,-43.52925 29.1541,-47.51251 3.907,-4.09419 5.4278,-4.26318 8.4376,-0.9375 2.0467,2.26164 5.625,3.4467 5.625,1.86291 0,-0.35039 -2.991,-4.70976 -6.6468,-9.6875 -3.6557,-4.97772 -8.5776,-12.26747 -10.9375,-16.19945 -2.3598,-3.93196 -4.8532,-6.9554 -5.5407,-6.71875 -0.6875,0.23666 -1.0367,1.20373 -0.776,2.14904 0.2606,0.94531 0.7442,4.28762 1.0745,7.42736 0.7617,7.24029 -0.4725,9.7028 -24.0431,47.96866 -10.0145,16.25828 -17.875,30.09969 -17.4677,30.7587 0.4073,0.65902 1.9717,0.92044 3.4764,0.58095 1.5048,-0.33948 17.5105,-3.4353 35.5683,-6.87958 z M 301.20749,369.15947 c 5.61175,-6.37483 9.85724,-12.15036 9.43442,-12.83449 -0.45721,-0.73979 -2.06808,-0.22183 -3.97496,1.27812 -4.57834,3.60131 -8.9684,3.11446 -14.974,-1.66059 -7.88971,-6.27312 -34.27517,-31.10397 -33.68182,-31.69732 0.2855,-0.28549 15.4465,3.7332 33.69111,8.93041 18.24461,5.19722 33.49231,9.4495 33.88381,9.4495 0.3915,0 0.7118,-0.74577 0.7118,-1.65729 0,-1.31457 -26.65508,-59.88055 -29.64506,-65.13546 -0.41691,-0.73274 0.5983,-0.16022 2.25604,1.27226 1.65774,1.43248 10.9186,9.41814 20.57972,17.74591 9.6611,8.32777 18.3311,16.57182 19.2668,18.3201 1.4217,2.65654 1.4291,4.00318 0.045,8.1978 -1.9719,5.97485 -0.7982,7.95435 2.1827,3.68127 1.17,-1.67728 6.6414,-8.02658 12.1587,-14.10955 5.5173,-6.08299 10.574,-11.82164 11.2372,-12.75255 2.316,-3.25105 -0.451,-3.28874 -4.6792,-0.0638 -5.3657,4.09263 -8.0686,4.08573 -14.1647,-0.0361 -6.2053,-4.19577 -38.96121,-32.27829 -42.66819,-36.5806 -3.3652,-3.90564 -3.58892,-8.58736 -0.65468,-13.69997 3.1283,-5.45074 0.80215,-6.49529 -3.16758,-1.4224 -1.8543,2.3696 -5.9886,7.29931 -9.18735,10.95491 l -5.8159,6.64655 14.73248,30.25696 c 8.10286,16.64134 14.57487,30.43338 14.38225,30.64896 -0.19263,0.21559 -14.68094,-3.58128 -32.19624,-8.4375 -17.51526,-4.85622 -32.67504,-8.8295 -33.68835,-8.8295 -2.23441,0 -20.96769,19.85593 -19.55626,20.72824 0.54847,0.33897 3.2441,-0.52997 5.9903,-1.93097 5.64706,-2.88091 9.5023,-3.15191 13.37935,-0.94047 3.86777,2.20614 40.0009,35.62629 42.28142,39.10681 2.43406,3.71484 2.47806,9.20035 0.101,12.59405 -1.70375,2.43244 -1.31905,4.68031 0.66845,3.90588 0.47786,-0.1862 5.46026,-5.55432 11.07202,-11.92917 z M 1165.38,344.37634 c 0.4118,-0.41182 -0.43,-3.01018 -1.8706,-5.77414 -2.5059,-4.80755 -2.5276,-5.19499 -0.5027,-8.93874 2.0838,-3.85252 37.9713,-38.09245 44.3801,-42.34262 4.3265,-2.86921 8.3499,-2.7656 12.6929,0.32689 6.8024,4.84373 5.3268,-0.0601 -2.1922,-7.2855 -4.0706,-3.91168 -10.2668,-10.40779 -13.7694,-14.43583 -7.0738,-8.13514 -10.4114,-8.62906 -6.1863,-0.91546 2.4375,4.44994 2.5093,5.17004 0.8298,8.32125 -2.4852,4.66276 -41.8805,41.55524 -46.962,43.97844 -3.7951,1.80975 -4.3361,1.76163 -8.6214,-0.76677 -8.8163,-5.20172 -6.8098,-1.11983 6.2218,12.65764 7.2313,7.64528 13.1479,14.35569 13.1479,14.91205 0,1.1825 1.75,1.34489 2.8321,0.26279 z m -46.6991,-53.95421 c 6.9005,-10.71812 40.2613,-52.4518 43.175,-54.01115 2.5153,-1.34619 4.1491,-1.39485 8.0085,-0.23854 5.8996,1.76756 6.4335,1.78567 6.4335,0.21834 0,-0.67888 -2.2529,-2.65652 -5.0065,-4.39476 -2.7535,-1.73825 -8.6322,-6.23624 -13.0636,-9.99557 -7.9865,-6.77511 -11.978,-7.38412 -7.0111,-1.06971 4.6496,5.91101 3.4958,10.42344 -5.7778,22.59667 -16.6279,21.82709 -22.8911,29.40498 -22.8987,27.70488 0,-0.9527 -1.9729,-19.433 -4.375,-41.06734 -2.402,-21.63433 -4.3673,-39.92811 -4.3673,-40.65285 0,-2.02321 -18.5024,-17.00467 -19.0335,-15.41148 -0.2568,0.77025 0.6338,3.62509 1.9791,6.34409 1.3452,2.719 2.4984,7.29483 2.5626,10.1685 0.1089,4.87367 -1.0318,6.70035 -16.9715,27.17565 -19.0655,24.4905 -21.8483,26.7005 -29.204,23.1928 -2.8356,-1.35222 -4.5072,-1.58546 -5.0515,-0.70485 -0.9503,1.53766 -1.2132,1.29024 10.143,9.54693 4.8395,3.51869 9.8486,7.55721 11.1312,8.97448 2.2758,2.51468 5.7223,3.51175 5.6668,1.63938 -0.015,-0.51563 -1.1278,-2.34375 -2.4722,-4.0625 -3.4895,-4.46105 -3.1255,-10.01179 1.0328,-15.74995 7.129,-9.83743 26.7736,-34.88496 27.6159,-35.21115 0.4773,-0.18485 2.9893,17.81515 5.5823,40 5.8685,50.21117 5.7936,49.71435 7.4913,49.69562 0.7715,-0.009 2.7563,-2.11788 4.4107,-4.6875 z M 438.53335,244.08309 c 5.9892,-4.01062 13.5986,-8.86714 16.9098,-10.79228 6.9347,-4.03195 6.3342,-6.78304 -0.8275,-3.7907 -6.5634,2.74237 -8.3646,1.36435 -18.4321,-14.1018 -9.7163,-14.9266 -9.3763,-13.14567 -7.389,-38.69828 1.267,-16.29225 3.602,-23.32612 8.9982,-27.10574 1.8007,-1.26128 2.3504,-2.37395 1.5621,-3.1622 -0.7882,-0.78826 -3.9185,0.66441 -8.8962,4.12847 -4.2239,2.93958 -10.2634,6.7152 -13.421,8.39029 -5.6703,3.00813 -7.0711,5.91978 -2.4802,5.15541 7.8275,-1.30325 7.3328,-2.2088 7.7274,14.14384 0.1991,8.25 0.052,16.2485 -0.3267,17.77444 -0.6879,2.77095 -0.701,2.7689 -10.362,-1.63237 -22.1421,-10.08717 -23.4382,-11.15895 -18.7625,-15.51502 1.7217,-1.604 2.2663,-2.94994 1.5027,-3.71355 -0.7636,-0.76361 -4.1363,0.8571 -9.3056,4.47167 -4.4593,3.11817 -11.6235,7.64615 -15.9204,10.06219 -8.5873,4.82845 -10.3547,7.63633 -3.75,5.95751 9.0998,-2.31298 14.7831,-1.10756 33.1615,7.03348 l 17.849,7.90654 6.6876,10.70255 c 11.0665,17.7105 11.553,19.54982 6.3644,24.06125 -2.7809,2.41798 -4.2475,6.01631 -2.452,6.01631 0.3701,0 5.5732,-3.28141 11.5625,-7.29201 z m 582.76445,-28.5153 c 8.0053,-3.3291 12.3848,-9.1129 23.1809,-30.61454 12.841,-25.57424 14.7683,-27.41174 25.5692,-24.37866 1.4808,0.41582 1.2891,-2.40364 -0.216,-3.17766 -11.8066,-6.07175 -27.4773,-12.97028 -27.9021,-12.283 -0.2986,0.48323 1.1245,2.47617 3.1626,4.42876 2.6478,2.53681 3.7055,4.7326 3.7055,7.69284 0,4.93805 -18.506,42.98438 -23.4352,48.17988 -1.782,1.87842 -5.6972,4.35372 -8.7004,5.50067 -4.6711,1.7839 -6.434,1.86748 -12.1951,0.5782 -8.53645,-1.91035 -16.09755,-7.35798 -19.51765,-14.06192 -2.1114,-4.13873 -2.5629,-6.84886 -2.1697,-13.02399 0.4221,-6.62982 1.8843,-10.62692 9.7623,-26.68721 11.59095,-23.62953 13.66765,-25.76152 22.81825,-23.42585 2.4122,0.6157 3.4256,0.40425 3.3975,-0.7089 -0.044,-1.73586 -34.81355,-19.02441 -35.95845,-17.87956 -0.3881,0.38814 1.1611,2.63179 3.4428,4.98589 5.4255,5.59772 5.1499,6.82105 -7.4401,33.02251 -8.943,18.61147 -10.0043,21.58485 -10.0043,28.03007 0,12.12249 5.4353,21.58357 16.6717,29.02027 11.7105,7.7505 24.58825,9.47653 35.82825,4.8022 z M 536.62345,195.3658 c 20.4526,-10.0688 31.8335,-32.49799 26.6858,-52.59159 -3.28,-12.80297 -10.0178,-20.8609 -23.2614,-27.81884 -4.879,-2.56333 -7.3691,-2.95527 -18.7763,-2.95527 -12.3258,0 -13.672,0.25636 -21.4483,4.08463 -10.6235,5.22991 -20.9493,16.09627 -24.8823,26.18464 -3.7919,9.72655 -3.9191,24.7752 -0.2778,32.86512 3.2122,7.13665 8.0062,12.84406 14.5979,17.37923 8.7438,6.01594 15.1032,7.67753 27.789,7.26079 9.8625,-0.32399 12.4684,-0.91095 19.5734,-4.40871 z m -24.7006,-4.4012 c -15.977,-6.26427 -27.6354,-22.40356 -29.067,-40.23895 -0.5578,-6.94914 -0.1931,-8.93506 2.7436,-14.93745 5.1258,-10.47674 15.8431,-16.9131 28.1623,-16.9131 16.2129,0 30.3516,11.49186 37.352,30.35939 6.9228,18.65852 -0.3168,35.21103 -18.1884,41.58568 -5.7915,2.06583 -15.9243,2.1355 -21.0025,0.14443 z m 373.2706,-24.58717 5.7705,-1.46504 0.7445,-7.08114 c 0.4094,-3.89464 1.5222,-9.33115 2.4729,-12.08115 1.5966,-4.61874 2.1409,-5.04766 7.1379,-5.625 2.9752,-0.34375 5.5936,-1.1875 5.8187,-1.875 0.2261,-0.69075 -7.2805,-2.7736 -16.778,-4.65541 -9.4529,-1.87298 -18.4527,-3.7667 -19.9996,-4.20829 -1.998,-0.57036 -2.8125,-0.27495 -2.8125,1.02005 0,1.0472 2.1522,2.46774 5.0575,3.3382 7.0597,2.11513 8.0409,4.92059 5.6804,16.24153 -1.051,5.0408 -2.5596,9.9467 -3.3525,10.90201 -1.8646,2.24672 -13.8729,2.21137 -20.2384,-0.0596 -14.9635,-5.33836 -22.7246,-17.49658 -22.5234,-35.28391 0.1965,-17.36691 7.2595,-31.227474 18.7464,-36.788194 17.4702,-8.45716 41.6465,2.69384 44.044,20.314694 0.7622,5.60173 2.9781,7.57665 4.3974,3.91924 0.4782,-1.23218 1.1831,-5.93579 1.5664,-10.45246 l 0.697,-8.212134 -5.9683,-3.95324 c -12.1709,-8.06169 -26.3596,-11.37979 -38.8766,-9.09147 -17.0018,3.1082 -31.4099,14.37837 -36.8749,28.843984 -3.8026,10.06521 -2.9397,24.41564 2.0155,33.51992 10.7299,19.71437 37.4092,29.29928 63.2751,22.73241 z m -241.1421,-2.24182 c 14.5703,-5.29304 23.4965,-16.57062 23.4965,-29.68592 0,-3.539 -1.6875,-14.76632 -3.75,-24.94959 -5.3341,-26.336474 -4.9629,-30.049994 3.319,-33.198754 2.7498,-1.04545 4.1311,-3.67625 1.9302,-3.67625 -0.5504,0 -6.0348,1.11283 -12.1875,2.47295 -6.1527,1.36012 -13.0148,2.48512 -15.2492,2.5 -2.7657,0.0184 -4.0625,0.62555 -4.0625,1.90205 0,1.28528 1.2886,1.875 4.0969,1.875 9.0351,0 10.6433,3.28272 16.5342,33.750004 4.3639,22.56962 3.8812,28.28189 -2.9691,35.1321 -4.4535,4.45355 -14.4885,8.62768 -20.7013,8.61093 -8.9427,-0.0241 -17.8471,-5.67979 -22.1157,-14.04682 -3.1275,-6.13053 -10.1193,-41.72482 -9.599,-48.867514 0.3367,-4.62284 0.9023,-5.45937 5.0665,-7.49415 4.5937,-2.24461 6.22,-4.61452 3.125,-4.55399 -0.8593,0.0168 -4.0937,0.6408 -7.1875,1.38664 -3.0937,0.74585 -11.217,2.32073 -18.0517,3.49974 -12.086,2.08485 -17.6719,5.08306 -9.4703,5.08306 4.7995,0 8.2784,1.74193 10.0353,5.02488 0.7264,1.357174 3.2734,12.141454 5.6602,23.965074 2.3867,11.82363 5.5058,23.90686 6.9314,26.85165 2.9391,6.07144 9.9451,12.14411 16.9938,14.73 6.6677,2.44611 21.0009,2.28775 28.1548,-0.31109 z m 142.4906,-41.19711 c -0.2095,-17.70361 -0.024,-34.649654 0.4126,-37.657854 0.9304,-6.41238 5.2695,-11.40555 9.9115,-11.40555 1.995,0 3.1818,-0.6994 3.1818,-1.875 0,-1.57464 -2.7199,-1.875 -16.9791,-1.875 -12.6823,0 -16.8522,0.38089 -16.4775,1.50507 0.2759,0.82779 2.2886,1.96812 4.4727,2.53406 7.9506,2.06023 9.3788,8.85755 8.0032,38.090894 l -0.8943,19.00504 -29.1314,-30.56754 -29.1314,-30.567524 -9.2039,0 c -5.0621,0 -10.0936,-0.34143 -11.181,-0.75874 -3.9714,-1.523959 -1.9606,3.2322 2.0852,4.93225 2.2344,0.93888 5.9308,3.61831 8.2143,5.95427 l 4.1517,4.24722 -0.4017,28.808364 c -0.4541,32.56404 -1.004,34.74558 -9.1423,36.27234 -2.4115,0.45239 -4.3845,1.46959 -4.3845,2.26044 0,1.00623 5.0814,1.47966 16.9262,1.57697 11.5907,0.0952 16.7848,-0.28527 16.4775,-1.20709 -0.2468,-0.7404 -2.2357,-1.80921 -4.4197,-2.37514 -7.0898,-1.83717 -8.314,-5.4722 -8.7231,-25.90215 -0.2003,-10.00105 0.081,-21.45507 0.625,-25.453384 l 0.9891,-7.26965 30.625,31.865994 c 16.8438,17.5263 31.4688,31.90742 32.5,31.95806 1.6299,0.08 1.8252,-4.11623 1.4941,-32.09635 z"
     id="path3435"
     inkscape:connector-curvature="0" />
</svg>
